<?xml version="1.0" encoding="utf-8"?>
<!-- Generator: Adobe Illustrator 26.2.1, SVG Export Plug-In . SVG Version: 6.00 Build 0)  -->
<svg version="1.1" id="Calque_1" xmlns="http://www.w3.org/2000/svg" xmlns:xlink="http://www.w3.org/1999/xlink" x="0px" y="0px"
	 viewBox="0 0 24 24" style="enable-background:new 0 0 24 24;" xml:space="preserve">
<style type="text/css">
	.st0{fill:#FF9580;}
</style>
<path class="st0" d="M7.4,10.1C7.2,9.9,7,9.8,6.6,9.8H6l0,2.4l0,2.4l0.6,0c0.4,0,0.6-0.1,0.8-0.3c0.2-0.2,0.3-0.4,0.3-2.2
	C7.7,10.3,7.7,10.3,7.4,10.1z M0,4.9v14.1h24V4.9H0z M8.6,15.3c-0.4,0.6-1.1,0.8-2.5,0.8H4.7V8.5h1.4c1.7,0,2.2,0.2,2.6,0.9
	C9,9.9,9,10,9,12C9.1,14.2,9,14.7,8.6,15.3z M13.7,9.8h-2.5v1.8h1.5v1.3l-0.7,0l-0.8,0v1.8l1.2,0l1.2,0v1.3h-1.6
	c-1.5,0-1.6,0-1.9-0.3l-0.3-0.3v-3.2c0-3,0-3.2,0.2-3.5c0.2-0.3,0.2-0.3,1.9-0.3h1.6V9.8L13.7,9.8z M18.3,15.3
	c-0.2,0.4-0.6,0.8-1,0.8c-0.2,0-0.5-0.1-0.7-0.4c-0.3-0.3-0.5-0.6-0.8-2.1l-0.9-3.4l-0.4-1.7h0.8c0.4,0,0.7,0,0.7,0.1
	c0,0.1,1.2,4.5,1.3,4.8c0,0.1,0.3-0.7,0.7-2.3l0.7-2.5l0.7,0c0.4,0,0.7,0,0.7,0C20.1,8.7,18.4,15,18.3,15.3L18.3,15.3z"/>
</svg>
