<?xml version="1.0" encoding="utf-8"?>
<!-- Generator: Adobe Illustrator 26.2.1, SVG Export Plug-In . SVG Version: 6.00 Build 0)  -->
<svg version="1.1" id="Calque_1" xmlns="http://www.w3.org/2000/svg" xmlns:xlink="http://www.w3.org/1999/xlink" x="0px" y="0px"
	 viewBox="0 0 24 24" style="enable-background:new 0 0 24 24;" xml:space="preserve">
<style type="text/css">
	.st0{fill:#FF9580;}
</style>
<path class="st0" d="M13.4,23v-3.7h1.6l0.1-0.1l-3.9-5.9L8,16.5l0,2.4l0.2,0.1l2.2,1.3l0.1,2.7H0.1l0.1-3l2-0.7l0.1-0.1V5.2L2.3,5
	L0,4.2V0.9h10.4v3.7H8.1L8,4.8v7L15.5,5V4.9l-1.2-0.4l-1.2-0.4V0.9h10.7v3.7h-1.4l-0.4,0.1L15,10.9l6.5,8.5l0.2,0.2l2.3,0.8v2.7
	L13.4,23z"/>
</svg>
